<?xml version="1.0" encoding="UTF-8"?>
<svg id="Layer_1" xmlns="http://www.w3.org/2000/svg" version="1.1" viewBox="0 0 360 360">
  <!-- Generator: Adobe Illustrator 30.0.0, SVG Export Plug-In . SVG Version: 2.1.1 Build 123)  -->
  <defs>
    <style>
      .st0 {
        fill: #23336b;
      }

      .st1 {
        fill: #234922;
      }
    </style>
  </defs>
  <g>
    <path class="st1" d="M108.33,40.44c.96.78-13.48,16.38-15.36,19.51-21.12,35.06-18.23,79.32,7.45,111.06,20.05,24.77,51.62,33.85,78.42,49.07,23.42-15.26,53.34-23.14,72.45-44.57,24.78-27.78,30.64-68.34,17.26-102.85l-19.5-32.27c7.64,2.51,15.31,7.21,21.38,12.39,7.75,6.61,19.66,26.64,24.72,29.31,13.02,6.87.5-12.87,12.42-10.18,7.07,1.59,10.42,14.83,10.22,21.35-.45,14.36-13.85,28.48-20.36,40.6,6.14,5.6,15.43-12.81,20.24-7.88,2.25,2.31-1.33,20.34-3.35,24.77-8.29,18.22-31.9,18.48-34.9,22.52-2.82,3.79,17,10.03,19.31,11.04,2.15.94,6.44.57,3.19,4.66-2.67,3.36-53.5,2.61-56.26,6.81-5.83,8.87,26.69,15.7,18.01,22.47-1.91,1.49-40.8,3.53-48.15,4.77-3.44.58-25.06,5.72-26.15,6.51-2.86,2.07,10.51,21.16,6.74,26.99l-13.43-14.7c-9.59-11.4-22.01,17.06-23.69,16.98-5.94-.27,8.34-24.97,5.42-29.08-1.1-1.55-20.27-5.65-24.08-6.31-13.62-2.36-34.54-1.49-46.13-5.65-2.68-.96-5.5-4.11-3.87-6.23.68-.88,19.58-8.18,20.25-9.06,3.18-4.17-7-8.24-10.28-8.83-15.78-2.81-32.53-1.12-48.25-4.67,3.24-6.19,12.01-6.97,18.11-10.11,1.8-.92,6.22-.73,4.38-4.47-1.59-3.24-21.68-9.23-26.85-13.68-6.23-5.36-15.92-29.84-9.13-34.74,3.73-2.69,12.94,11.45,18,7.85-8.22-12.47-30.71-50.2-11.34-60.83,11.58-6.36,3.03,13.63,14.51,10.02,3.16-.99,37.6-51.54,48.59-42.57Z"/>
    <path class="st0" d="M108.33,62.93c-3.65-3.21,18.49-22.31,21.74-24.4,30.42-19.63,70.67-18.92,99.62,3.21,2.81,2.15,17.4,15.99,18.18,17.85,1.93,4.6-3.13,3.17-5.58,3.35-5.58.41-11.33-.31-16.91.02-.08,4.59,6.89.55,8.73,5.87,2.39,6.92-1.16,22,.27,30.12h-33.77c1.15-8.12-1.84-20.35.41-27.73,1.72-5.64,7.9-3.92,8.59-8.29h-31.52c-1.44,3.7,9,2.05,9,5.63v69.78c0,3.58-10.44,1.93-9,5.63h31.52c.56-3.91-9-.55-9-7.88v-32.64h33.77v34.89c0,3.62-9.6,1.59-8.99,5.61,8.59.31,17.31-.36,25.92.02,2.83.12,4.44-.67,3.28,3.31-3.85,13.2-22.78,30.81-34.77,37.28-19.92,10.74-16.4,3.58-34.04.15-8.07-1.57-46.21-2.2-48.18-4.74-2.73-3.53.63-3.86,2.86-4.99,5.82-2.94,13.47-3.21,19.05-5.71,2.48-1.11,5.37-1.69,2.83-5-1.07-1.4-29.67-4.11-34.89-4.52-9.04-.72-22.11,4.16-19.14-6.75,18.46-5.72,66.35-2.81,65.17-30.21-.85-19.66-22.77-18.39-24.62-22.71-.62-1.43,19.98-1.84,19.93-18.01-.02-7.61-10.06-19.13-16.57-19.13s-42.25,1.45-43.9,0Z"/>
    <path class="st0" d="M110.58,65.19v64.16c0,3.31,11.94,5.57,14.77,1.26,3.13-4.77-.52-25.65.98-27.15,1.79-1.79,19.1.84,23.12,2.78,12.71,6.13,11.66,30.6-.46,34.51-7.7,2.48-46.69,5.93-50.82,1.02-8.8-10.44-5.38-46.78-1.18-59.78,1.94-6,6.12-19.59,13.6-16.79Z"/>
    <path class="st0" d="M247.89,67.44c5.75-6.38,14.28,26.25,14.75,29.15,1.57,9.8,1.56,35.17-4.63,42.86-3.56,4.42-10.11,1.32-10.11-1.11,0-9.74-2.37-68.27,0-70.91Z"/>
    <path class="st0" d="M126.34,98.95v-33.77c15.31-.46,27.17-1.43,27.17,16.88s-11.86,17.34-27.17,16.88Z"/>
  </g>
  <g>
    <path class="st0" d="M62.54,308.37c1.82-.31,2.79-2.21,2.79-4.3v-17.88c0-2.4-.31-3.57-2.87-3.8-.7-.08-.7-1.16,0-1.13,1.2.08,2.71.08,4.3.08h5c.31,0,.62.19.74.46l7.76,17.99h.08l7.21-17.95c.12-.27.35-.5.66-.5h5.12c1.44,0,2.44,0,3.96-.08.74-.04.7,1.09,0,1.13-2.4.12-2.6,1.4-2.6,3.84v18.38c0,2.4.19,3.68,2.6,3.8.7.04.74,1.16,0,1.12-1.47-.08-2.6-.23-5.78-.23-2.37,0-5.43.16-6.98.23-.7.04-.7-1.05,0-1.12,3.1-.31,3.45-1.4,3.45-3.8v-18.54h-.15l-9.46,22.76c-.27.66-1.16.66-1.44,0l-9.97-22.76h-.15v17.95c0,2.13,1.05,4.19,3.1,4.34.74.04.78,1.2,0,1.16-1.78-.15-5.35-.23-7.37,0-.74.04-.74-1.09,0-1.16Z"/>
    <path class="st0" d="M102.44,308.71c2.07-.28,2.25-1.28,2.25-3.28v-14.55c0-2.16-.19-3.07-2.25-3.26-.56-.06-.59-.94,0-.91,1,.06,2.28.13,4.38.13l12.95-.06c.44,0,.78.28.78.75-.06,1.69.06,3.35.22,5.01.06.63-.97.69-1,.06-.13-2.82-2.38-4.88-5.19-4.98l-2.75-.09c-1.03-.03-1.72.62-1.72,1.63v7.82h1.91c2.16,0,3.57-1.41,3.57-3.75,0-.59,1.03-.59,1,0-.16,3.1-.16,6.01,0,8.92.03.56-1,.56-1,0,0-2.72-1.41-4.35-3.57-4.35h-1.91v8.51c0,1.5,1.06,2.53,2.35,2.53l3.13-.03c2.78-.03,5.04-2.47,5.19-5.66.03-.63,1.06-.56,1,.06-.19,1.91-.28,3.72-.22,5.63,0,.47-.38.75-.78.75l-8.79-.09c-1.1,0-2.41-.22-5.04-.22-2.41,0-3.66.34-4.51.37-.59.03-.59-.87,0-.94Z"/>
    <path class="st0" d="M125.5,308.58c1.44-.25,2.25-1.78,2.25-3.47v-14.43c0-1.94-.22-2.88-2.28-3.07-.56-.06-.56-.94,0-.91.97.06,2.19.06,3.44.06h3.69c.41,0,.66.16.94.5l9.95,12.7h.13v-8.82c0-1.72-.81-3.41-2.5-3.5-.59-.03-.63-1,0-.94,1.44.16,4.29.19,5.95,0,.59-.06.59.87,0,.94-1.47.25-2.25,1.78-2.25,3.47v13.39l.13,4.57c0,.5-.66.75-1,.38l-14.86-18.93h-.13v14.55c0,1.72.81,3.41,2.5,3.5.59.03.63,1,0,.94-1.44-.16-4.29-.19-5.95,0-.59.06-.59-.87,0-.94Z"/>
    <path class="st0" d="M152.48,295.19c2.07-.81,3.16-2.44,3.04-3.82-.31.09-.69.12-1,.12-1.78,0-2.63-1.35-2.63-2.6s.94-2.6,2.69-2.6,3.07,1.41,3.07,3.75c0,2.6-1.85,4.91-4.66,5.85-.63.28-.91-.56-.5-.72Z"/>
    <path class="st0" d="M162.55,307.42l-.19,1.19c-.16.94-1.53.84-1.47,0,.16-1.97.25-4.13.06-6.35-.06-.81,1.44-1.09,1.53,0,.19,2.72,2.44,6.63,6.54,6.63,2.5,0,4.04-1.69,4.04-3.91,0-2.72-2.28-3.82-4.85-4.91-3.1-1.31-6.57-3.01-6.57-7.23,0-5.29,4.57-6.54,7.23-6.54,1.91,0,4.01.69,5.04,1.81l.16-.78c.19-.97,1.44-.72,1.35.06-.25,2.31-.16,3.97,0,5.94.06.94-1.41,1.16-1.5.13-.31-3.38-2.22-6.13-5.07-6.13-1.91,0-3.25,1.25-3.25,3.16,0,2.44,2.16,3.35,5.1,4.44,3.13,1.16,6.45,2.63,6.45,7.23s-3.82,7.76-8.23,7.76c-2.57,0-4.69-1-6.35-2.5Z"/>
    <path class="st0" d="M191.45,295.38c0-8.03,7.29-14.62,15.28-14.62,3.06,0,6.24,1.2,7.56,2.95l.23-1.28c.23-1.2,1.98-.97,1.86.12-.27,2.44-.31,4.85.04,7.29.19,1.32-1.67,1.32-1.9,0-.86-4.5-3.49-7.72-7.8-7.72-5.78,0-8.11,5.74-8.11,12.88,0,7.6,2.33,13.65,8.11,13.65,4.3,0,7.21-3.14,7.8-7.72.15-1.32,2.02-1.32,1.9,0-.23,2.44-.27,4.85-.04,7.29.12,1.12-1.63,1.36-1.86.11l-.23-1.28c-1.32,1.75-4.5,2.95-7.56,2.95-7.99,0-15.28-6.59-15.28-14.62Z"/>
    <path class="st0" d="M221.54,308.74c2.06-.31,2.25-1.31,2.25-3.32v-14.71c0-1.97-.16-3.01-2.1-3.1-.56-.03-.59-.94,0-.91,1.06.06,2.13.06,4.13.06,3.69,0,5.04,0,6.38-.06.66-.03.62.87,0,.91-2.79.13-3.01,1.13-3.01,3.1v15.39c0,1.57,1.03,2.6,2.6,2.57l2.22-.06c2.82-.09,5.01-2.53,5.16-5.79.03-.72,1.09-.69,1.03,0-.19,1.97-.28,3.94-.25,5.95.03.47-.31.75-.78.75l-8.11-.03c-2.28,0-3.66-.22-5.04-.22-2.41,0-3.54.34-4.51.41-.6.03-.6-.88,0-.94Z"/>
    <path class="st0" d="M245.1,302.26v-11.58c0-1.94-.22-2.88-2.16-3.07-.56-.06-.56-.94,0-.91.94.06,2.1.06,3.32.06h3.25c1.16,0,2.16,0,3.19-.06.6-.03.56.87,0,.91-1.94.09-2.1,1.13-2.1,3.1v10.61c0,4.1,1.81,6.6,5.63,6.6s5.66-2.79,5.66-6.51v-10.26c0-1.78-.87-3.29-2.66-3.5-.59-.06-.62-.97,0-.94,1.5.06,4.51.09,6.26,0,.6-.03.6.78,0,.94-1.25.31-2.41,1.72-2.41,3.47v10.29c0,4.19-2.47,8.48-8.17,8.48-6.54,0-9.83-3.35-9.83-7.63Z"/>
    <path class="st0" d="M269.11,308.71c2.16-.31,2.35-1.35,2.35-3.44v-14.55c0-1.97-.16-3.01-2.1-3.1-.56-.03-.59-.94,0-.91,1.03.06,2.03.06,3.19.06h7.29c4.91,0,7.95,1.78,7.95,5.13,0,2.35-1.88,4.57-5.94,5.26,4.97.53,7.89,2.79,7.89,5.7,0,4.6-4.07,6.6-10.42,6.6-2.79-.09-4.6-.19-6.51-.19-1.6,0-2.85.34-3.69.41-.63.03-.63-.91,0-.97ZM282.66,292.56c0-2.72-1.38-4.6-3.82-4.72l-.56-.03c-.88-.06-1.41.56-1.41,1.41v7.67l2.25-.03c2.53-.03,3.54-1.88,3.54-4.29ZM283.97,303.39c0-3.13-1.53-5.32-4.22-5.35l-2.88-.03v7.17c0,2.35,1.38,3.25,3.32,3.25,2.79,0,3.79-2.19,3.79-5.04Z"/>
  </g>
</svg>